<svg width="798" height="520" viewBox="0 0 798 520" fill="none" xmlns="http://www.w3.org/2000/svg">
<path d="M213.451 499.318C213.451 493.557 213.591 493.409 218.334 493.409C223.077 493.409 223.217 493.557 223.217 499.318C223.217 505.08 223.077 505.227 218.334 505.227C213.591 505.227 213.451 505.08 213.451 499.318Z" fill="#FFFEF7"/>
<path d="M739.406 497.841V491.932H745.684H751.962V497.841V503.75H745.684H739.406V497.841Z" fill="#FFFEF7"/>
<path d="M679.416 464.602V447.614H683.741C690.716 447.614 691.972 450.273 691.972 464.602C691.972 478.932 690.716 481.591 683.741 481.591H679.416V464.602Z" fill="#FFFEF7"/>
<path d="M454.804 471.989V465.341H448.526C443.225 465.341 442.248 464.898 442.248 462.386C442.248 460.761 441.69 459.432 440.853 459.432C439.319 459.432 439.04 453.227 440.295 448.057C440.993 445.398 442.248 444.659 445.876 444.659C448.526 444.659 450.619 445.398 450.619 446.136C450.619 447.023 451.595 447.614 452.712 447.614C454.386 447.614 454.804 449.534 454.804 456.477V465.341H459.687C464.57 465.341 464.57 465.341 464.57 471.989C464.57 478.636 464.57 478.636 459.687 478.636C454.804 478.636 454.804 478.636 454.804 471.989Z" fill="#FFFEF7"/>
<path d="M351.566 468.295V459.432H356.449C359.798 459.432 361.332 460.17 361.332 461.648C361.332 462.83 362.309 463.864 363.425 463.864C364.541 463.864 365.517 462.534 365.517 460.909C365.517 458.545 366.494 457.955 370.4 457.955C375.283 457.955 375.283 457.955 375.283 464.602C375.283 470.955 375.144 471.25 371.098 471.25C368.447 471.25 366.913 471.989 366.913 473.318C366.913 475.239 361.193 477.159 354.915 477.159C351.706 477.159 351.566 476.568 351.566 468.295Z" fill="#FFFEF7"/>
<path d="M64.1748 463.864C64.1748 458.102 64.3143 457.955 69.0577 457.955C73.801 457.955 73.9405 458.102 73.9405 463.864C73.9405 469.625 73.801 469.773 69.0577 469.773C64.3143 469.773 64.1748 469.625 64.1748 463.864Z" fill="#FFFEF7"/>
<path d="M166.018 441.705C166.018 434.761 166.576 429.886 167.413 429.886C168.25 429.886 168.808 425.898 168.808 421.023V412.159H174.388H179.969V421.023C179.969 427.966 179.55 429.886 177.876 429.886C176.202 429.886 175.783 432.25 175.783 441.705V453.523H170.9H166.018V441.705Z" fill="#FFFEF7"/>
<path d="M351.845 439.193L352.264 430.625L359.1 430.182C366.912 429.591 368.308 430.92 368.308 439.193C368.308 444.068 367.889 444.659 364.82 444.659C362.867 444.659 361.332 445.398 361.332 446.136C361.332 447.023 359.1 447.614 356.449 447.614H351.427L351.845 439.193Z" fill="#FFFEF7"/>
<path d="M521.77 441.114C521.77 436.977 522.328 435.943 524.978 435.352L528.048 434.761L524.978 434.466C522.328 434.318 521.77 433.432 521.77 429.148C521.77 424.568 522.188 423.977 525.676 423.83C527.908 423.682 528.466 423.386 527.071 422.943C525.118 422.5 524.56 420.727 524.56 415.705C524.56 409.205 524.56 409.205 529.443 409.205C532.791 409.205 534.325 409.943 534.325 411.42C534.325 412.602 535.302 413.636 536.418 413.636C537.953 413.636 538.511 415.261 538.65 419.25C538.65 422.205 539.069 423.83 539.487 422.943C539.766 421.909 542.278 421.023 544.928 421.023C549.393 421.023 549.672 421.318 549.672 426.193C549.672 429 549.114 431.364 548.277 431.364C547.579 431.364 546.881 432.693 546.881 434.318C546.881 436.682 545.905 437.273 541.999 437.273C539.348 437.273 537.116 438.011 537.116 438.75C537.116 439.636 535.86 440.227 534.325 440.227C532.512 440.227 531.535 441.261 531.535 443.182C531.535 445.545 530.559 446.136 526.652 446.136C522.049 446.136 521.77 445.841 521.77 441.114Z" fill="#FFFEF7"/>
<path d="M25.2512 443.625L20.5078 443.034L21.4844 435.352C21.9029 431.068 22.3214 426.193 22.3214 424.42C22.3214 421.614 23.019 421.023 27.0648 421.023C29.7155 421.023 33.3428 422.352 35.4354 424.125C38.6442 426.784 39.0627 428.261 39.0627 435.943V444.659L34.5984 444.364C32.0872 444.364 27.9019 443.92 25.2512 443.625Z" fill="#FFFEF7"/>
<path d="M352.683 421.466C349.334 420.875 348.776 420.136 348.776 416C348.776 411.716 349.334 410.977 353.101 410.091C363.425 407.875 365.518 409.352 365.518 418.216C365.518 422.057 365.099 422.5 361.053 422.352C358.542 422.205 354.775 421.761 352.683 421.466Z" fill="#FFFEF7"/>
<path d="M371.656 397.534C370.958 392.807 370.121 391.477 367.889 391.477C366.354 391.477 362.588 390.295 359.658 388.966C354.914 386.75 354.356 385.864 354.356 380.989C354.356 373.307 356.868 371.682 367.052 372.716C377.655 373.898 380.863 375.818 380.863 380.545C380.863 383.943 381.003 384.091 383.096 382.023C385.607 379.364 403.185 378.625 403.185 381.136C403.185 382.023 405.975 382.614 409.463 382.614C414.485 382.614 415.741 383.057 415.741 385.273C415.741 387.341 416.718 387.784 421.321 387.341C426.902 386.75 426.902 386.75 426.902 391.92C426.902 397.682 425.228 398.864 417.834 398.864C414.485 398.864 412.951 398.125 412.532 396.352C412.114 394.727 411.835 395.318 411.695 397.83C411.556 401.818 411.556 401.966 402.906 401.523C398.023 401.227 389.234 401.67 383.375 402.261L372.632 403.591L371.656 397.534Z" fill="#FFFEF7"/>
<path d="M283.206 399.455C274.975 397.83 273.44 397.239 273.44 395.318C273.44 393.841 271.906 393.546 267.441 393.989C262 394.727 261.303 394.432 259.768 390.886C258.792 388.523 256.978 387.046 255.304 387.046C253.63 387.046 251.816 385.568 250.84 383.352C249.863 380.989 248.189 379.659 245.957 379.659C243.167 379.659 242.748 378.921 242.748 374.636C242.748 369.171 244.422 367.841 251.258 367.841C254.606 367.841 255.304 367.25 255.304 364.148C255.304 360.898 255.862 360.455 260.884 360.455C265.349 360.455 266.883 361.193 268.837 364.296C270.092 366.364 272.603 368.727 274.417 369.466C276.649 370.352 277.626 371.977 277.626 374.489C277.626 378.477 281.95 381.58 282.927 378.477C283.206 377.443 284.601 376.705 285.996 376.705C287.531 376.705 289.205 375.67 289.903 374.341C291.019 372.273 293.111 371.977 303.296 372.568C312.643 373.011 315.294 372.716 315.294 371.239C315.294 369.909 317.247 369.318 321.711 369.318C330.919 369.318 333.43 371.239 333.43 378.182C333.43 381.432 332.872 384.091 332.035 384.091C331.337 384.091 330.64 386.159 330.64 388.523C330.64 391.773 329.942 392.955 328.128 392.955C326.733 392.955 325.059 393.398 324.501 394.136C322.409 396.205 289.205 400.636 283.206 399.455Z" fill="#FFFEF7"/>
<path d="M451.037 394.875C450.061 394.432 449.224 392.068 449.224 389.409C449.224 385.42 449.921 384.386 453.827 382.909C456.339 381.875 459.826 381.136 461.501 381.136C464.012 381.136 464.57 380.25 464.57 375.966C464.57 370.795 464.57 370.795 470.848 370.795C476.568 370.795 477.126 371.091 477.126 374.341C477.126 376.261 478.102 378.625 479.218 379.659C480.334 380.693 481.311 383.795 481.311 386.455C481.311 390.443 480.753 391.477 478.521 391.477C476.986 391.477 475.731 392.511 475.731 393.693C475.731 395.318 473.498 395.761 464.291 395.761C457.873 395.614 451.874 395.318 451.037 394.875Z" fill="#FFFEF7"/>
<path d="M499.448 387.784C499.448 382.909 499.727 382.614 504.331 382.614C506.981 382.614 511.725 381.58 514.794 380.25C518.979 378.477 522.467 378.182 528.047 378.92C535.581 379.807 535.72 379.955 535.72 384.83C535.72 389.705 535.72 389.705 526.931 391.33C522.048 392.216 513.817 392.955 508.795 392.955H499.448V387.784Z" fill="#FFFEF7"/>
<path d="M153.322 388.966C147.881 388.375 146.486 386.159 146.486 377.886C146.486 373.898 146.625 373.75 154.856 373.75C162.251 373.75 163.227 374.045 163.227 376.705C163.227 378.33 164.204 379.659 165.32 379.659C166.715 379.659 167.412 381.284 167.412 384.83C167.412 390.443 167.273 390.443 153.322 388.966Z" fill="#FFFEF7"/>
<path d="M177.178 384.977C177.178 382.023 177.736 379.659 178.434 379.659C179.271 379.659 179.968 376.852 180.247 373.455L180.666 367.102L187.502 366.659C191.269 366.364 194.757 366.659 195.454 367.398C196.152 368.136 196.989 372.42 197.547 377.148C198.384 384.977 198.244 385.568 195.594 385.568C194.059 385.568 192.524 386.307 192.245 387.193C191.966 388.08 188.479 389.261 184.433 389.705L177.178 390.443V384.977Z" fill="#FFFEF7"/>
<path d="M219.031 384.83C219.031 382.762 219.868 378.477 220.705 375.227C222.379 369.909 222.938 369.318 226.983 369.318C232.843 369.318 237.168 373.75 237.168 379.659C237.168 383.352 236.61 384.091 233.68 384.091C231.727 384.091 229.774 385.125 229.355 386.307C228.797 387.637 226.704 388.523 223.775 388.523C219.589 388.523 219.031 388.08 219.031 384.83Z" fill="#FFFEF7"/>
<path d="M546.602 387.489C541.44 386.898 541.301 386.75 541.301 380.989C541.301 376.261 541.719 375.227 543.951 375.227C545.765 375.227 546.881 374.045 547.16 371.977C547.439 369.318 548.555 368.432 552.601 368.136C556.786 367.693 558.321 368.432 561.251 372.125C563.204 374.636 565.855 376.705 566.971 376.705C568.505 376.705 569.203 378.182 569.203 381.727C569.203 386.307 568.784 386.75 564.041 387.636C558.6 388.523 555.949 388.523 546.602 387.489Z" fill="#FFFEF7"/>
<path d="M607.708 380.841C605.476 371.534 607.289 367.841 614.125 367.841C615.52 367.841 617.753 366.807 618.869 365.625C620.822 363.704 620.682 363.409 618.032 363.409C615.381 363.409 615.102 362.67 615.52 354.25L615.939 344.943H621.519C626.821 344.943 627.1 345.239 627.518 349.966C627.937 354.693 628.076 354.841 633.099 353.954C635.889 353.511 641.051 352.625 644.399 352.182C647.747 351.591 651.654 349.966 653.049 348.489C655.42 345.977 655.42 345.829 651.096 345.386C647.189 344.943 646.631 344.352 646.213 340.068C645.515 333.42 648.026 330.614 654.165 331.204C658.769 331.648 659.187 332.091 659.606 336.523C659.885 339.182 659.466 342.284 658.629 343.17C657.653 344.5 659.327 344.795 665.186 344.5C675.928 343.909 679.974 346.42 680.532 353.364C681.09 360.307 678.579 361.784 666.721 361.784C661.559 361.636 657.653 362.375 657.374 363.261C657.095 364.148 655.42 364.886 653.607 364.886C651.654 364.886 650.119 365.92 649.7 367.841C649.142 370.057 647.747 370.795 644.678 370.795C640.772 370.795 640.353 371.239 640.353 375.227C640.353 379.511 640.214 379.659 633.517 379.659C628.076 379.659 626.402 379.068 625.984 377.148C625.565 375.67 625.286 376.704 625.147 379.364L625.007 384.091H616.776C609.521 384.091 608.545 383.795 607.708 380.841Z" fill="#FFFEF7"/>
<path d="M64.1748 378.034C64.1748 374.784 63.4772 373.307 61.3846 372.716C59.8499 372.273 58.5943 371.386 58.5943 370.648C58.5943 369.909 57.6178 369.318 56.5017 369.318C55.1066 369.318 54.409 367.841 54.409 364.295C54.409 358.682 56.3622 357.5 66.686 357.5H72.5454V363.852C72.5454 368.432 72.9639 369.466 73.9405 367.841C74.6381 366.659 75.1961 361.932 75.0566 357.5C75.0566 353.068 74.6381 350.852 74.359 352.773C73.801 355.432 72.8244 356.023 68.2206 356.023C64.3143 356.023 62.7797 355.432 62.7797 353.807C62.7797 352.182 61.1055 351.591 55.8041 351.591C48.8286 351.591 48.8286 351.591 48.8286 346.864C48.8286 344.204 49.3867 341.25 49.9447 340.216C51.6188 337.409 58.3153 335.341 65.8489 335.341C74.08 335.341 76.5912 337.704 76.7307 345.386C76.7307 349.818 77.0097 350.114 81.4741 350.114C83.9853 350.114 86.915 351.148 87.8915 352.329C90.2632 355.432 92.0769 355.136 92.0769 351.739C92.0769 346.125 93.6115 344.204 98.4943 344.204C102.54 344.204 103.238 344.795 103.238 347.602C103.238 354.693 104.493 355.136 118.305 353.659L125.559 352.773V359.42C125.559 365.329 125.978 366.216 129.745 367.841C132.116 368.875 133.93 370.204 133.93 370.943C133.93 371.682 135.186 372.273 136.72 372.273C138.952 372.273 139.51 373.307 139.51 377.443C139.51 381.875 139.092 382.614 136.023 382.614C130.163 382.614 118.026 379.364 115.654 377.148C114.399 376.114 111.05 374.636 108.26 374.193C104.214 373.602 103.238 373.898 103.238 375.818C103.238 377.591 101.843 378.182 96.9597 378.182C91.9374 378.182 90.6818 377.591 90.6818 375.67C90.6818 373.75 90.2632 373.602 89.0076 374.932C88.0311 375.966 85.3804 376.704 83.0087 376.704C80.358 376.704 77.9863 377.739 76.7307 379.659C75.3356 381.727 73.1034 382.614 69.4762 382.614C64.4538 382.614 64.1748 382.318 64.1748 378.034Z" fill="#FFFEF7"/>
<path d="M586.502 379.068C586.084 377.148 585.944 373.898 586.223 372.125C586.642 369.023 587.339 368.58 592.92 368.58C599.058 368.58 599.198 368.727 599.616 373.455C600.174 379.807 597.942 382.614 592.083 382.614C588.316 382.614 587.2 381.875 586.502 379.068Z" fill="#FFFEF7"/>
<path d="M684.997 356.761C684.997 353.216 685.555 351.591 687.089 351.591C688.345 351.591 689.182 350.261 689.182 347.898C689.182 344.648 689.74 344.205 694.483 344.205C697.273 344.205 702.993 343.761 707.039 343.318L714.294 342.284V347.898C714.294 352.034 713.596 353.511 711.643 354.102C710.108 354.546 708.713 356.318 708.434 358.091C708.016 360.898 707.039 361.193 696.576 361.636L684.997 362.08V356.761Z" fill="#FFFEF7"/>
<path d="M16.8806 334.011C15.625 333.125 15.2064 330.466 15.4855 325.148C15.904 318.795 15.625 317.614 13.6718 317.614C11.7187 317.614 11.1606 316.432 11.1606 312.443C11.1606 308.455 11.7187 307.273 13.6718 307.273C15.2064 307.273 17.7176 305.943 19.5313 304.318C22.0425 301.955 22.3215 301.364 20.5078 301.364C18.6942 301.364 18.1362 299.886 18.1362 294.716C18.1362 289.841 18.6942 288.068 20.2288 288.068C21.3449 288.068 22.3215 287.182 22.3215 286.148C22.3215 285.114 23.1585 282.455 24.1351 280.239C25.6697 276.398 26.3673 276.25 33.4823 276.545L41.1554 276.989V285.114C41.0159 289.545 40.5974 294.42 39.8998 295.75C39.0627 297.818 39.7603 298.261 44.9222 298.705C49.8051 299 51.0606 299.739 51.3397 302.25C51.6187 304.614 53.0138 305.648 57.0596 306.386C64.0351 307.568 66.1278 310.227 65.0117 316.875C64.5932 319.682 63.7561 324.261 63.3376 327.068C62.64 331.205 61.803 332.239 58.3152 332.977C50.7816 334.602 47.4334 334.011 47.4334 331.352C47.2939 329.875 46.5963 327.216 45.6197 325.443C44.2246 322.784 43.5271 322.636 41.7134 324.114C40.4578 325 39.2023 327.068 38.9232 328.693C38.6442 330.318 36.8306 332.386 34.8774 333.42C30.9711 335.489 19.8103 335.932 16.8806 334.011Z" fill="#FFFEF7"/>
<path d="M714.573 333.568C713.596 332.534 712.898 329.58 712.898 326.92C712.898 322.636 713.317 322.045 716.526 322.045C719.595 322.045 720.013 321.602 719.316 318.795C718.897 316.875 718.479 313.33 718.479 310.818C718.479 307.42 717.781 305.943 715.549 305.352C713.038 304.614 712.759 303.58 713.177 296.636L713.596 288.807L719.595 288.364C725.036 287.92 725.454 288.216 725.454 291.466C725.454 293.534 726.431 295.455 727.547 296.045C729.221 296.636 729.64 295.602 729.64 291.614C729.64 283.341 734.104 280.534 743.312 283.045C746.102 283.932 746.381 284.818 746.381 293.091C746.381 300.773 745.823 302.841 743.172 305.5C741.359 307.273 738.847 308.75 737.592 308.75C733.406 308.75 729.64 313.477 729.64 318.648C729.64 322.341 729.082 323.523 727.129 323.523C725.175 323.523 724.757 324.557 725.175 329.432C725.733 335.341 725.733 335.341 720.99 335.341C718.339 335.341 715.549 334.602 714.573 333.568Z" fill="#FFFEF7"/>
<path d="M10.4633 279.205C10.0448 277.58 8.64965 276.25 7.53357 276.25C6.41748 276.25 5.58042 275.659 5.58042 274.773C5.58042 274.034 4.32482 273.296 2.79021 273.296C0.139511 273.296 0 272.261 0 260C0 247.739 0.139511 246.705 2.79021 246.705C4.60385 246.705 5.58042 245.671 5.58042 243.75C5.58042 241.83 4.60385 240.796 2.79021 240.796C0.418531 240.796 0 239.761 0 233.409C0 227.057 0.418531 226.023 2.79021 226.023C4.32482 226.023 5.58042 227.057 5.58042 228.239C5.58042 229.568 6.41748 230.011 7.67308 229.568C8.78916 228.977 9.76573 228.091 9.76573 227.352C9.76573 226.614 8.78916 226.023 7.67308 226.023C6.27797 226.023 5.58042 224.398 5.58042 220.852C5.58042 215.977 5.85944 215.682 10.4633 215.682C13.8115 215.682 15.3462 216.421 15.3462 217.898C15.3462 219.375 16.7413 220.114 20.0895 220.114C26.228 220.114 32.0874 226.909 31.9479 233.852C31.6689 243.602 30.2738 245.966 24.4143 246.852C19.1129 247.739 19.1129 247.739 23.4378 248.034C27.3441 248.182 27.9021 248.625 27.9021 252.466C27.9021 260.296 25.2514 265.909 21.3451 265.909C18.5549 265.909 17.9969 266.352 18.9734 268.568C19.5315 269.898 20.229 273.591 20.6476 276.693C21.2056 282.159 21.2056 282.159 16.3227 282.159C12.5559 282.159 11.1608 281.421 10.4633 279.205ZM17.2993 250.398C17.8573 248.921 17.1598 248.182 15.3462 248.182C13.5325 248.182 12.835 248.921 13.393 250.398C13.951 251.58 14.7881 252.614 15.3462 252.614C15.9042 252.614 16.7413 251.58 17.2993 250.398Z" fill="#FFFEF7"/>
<path d="M735.221 263.841C735.221 260.148 735.918 256.75 736.616 256.307C738.708 254.977 738.29 252.614 735.918 252.614C734.663 252.614 733.825 253.943 733.825 255.716C733.825 257.489 732.43 261.182 730.896 263.989C728.245 268.42 727.268 269.011 723.083 268.568C716.387 267.977 709.969 258.67 708.993 248.477C708.435 241.977 708.714 241.091 712.062 238.875C717.224 235.329 717.084 229.273 711.922 228.682C708.156 228.239 708.016 227.795 708.016 220.409V212.727H702.296C697.134 212.727 696.158 212.136 692.53 206.523C690.298 202.977 687.647 199.579 686.81 198.989C685.834 198.398 684.997 195.148 684.997 192.045C684.997 186.284 685.136 186.136 690.159 186.136C693.786 186.136 696.437 187.318 699.227 190.125L703.133 194.114V188.943C702.994 182.591 699.645 177.42 697.274 179.932C696.297 180.966 693.507 181.704 690.996 181.704C686.671 181.704 686.392 181.409 686.392 176.829C686.392 174.17 687.089 171.216 688.066 170.182C689.322 168.852 688.903 168.409 686.113 168.409C679.277 168.409 678.579 157.329 684.997 151.716C688.485 148.466 689.182 146.841 689.182 141.227C689.182 135.466 688.764 134.432 686.392 134.432C684.16 134.432 683.602 133.398 683.602 129.261V124.091H690.577C695.6 124.091 697.553 124.682 697.553 126.159C697.553 127.341 698.529 128.67 699.785 129.114C701.738 129.852 702.017 131.477 701.32 138.125L700.482 146.25H705.365C709.69 146.25 710.109 146.693 710.109 150.386C710.109 153.489 711.085 155.114 713.596 156.295C716.526 157.773 717.084 159.102 717.084 163.977C717.084 168.704 716.526 169.886 714.433 169.886C712.48 169.886 712.062 170.773 712.62 173.579C713.178 176.829 714.015 177.273 718.619 177.273C721.688 177.273 724.06 178.011 724.06 178.75C724.06 179.636 725.315 180.227 726.85 180.227C729.082 180.227 729.64 181.261 729.64 185.25C729.64 190.864 728.106 192.045 720.153 192.193C715.689 192.193 715.41 192.341 718.061 193.523C719.874 194.261 724.339 195.295 728.106 195.886C734.663 196.773 735.081 197.216 735.639 201.5C736.058 205.784 736.197 205.636 736.337 200.466L736.616 194.852L743.312 195.295L749.869 195.739L750.288 203.716C750.567 208.148 750.009 212.432 749.311 213.17C748.474 214.057 747.776 219.67 747.776 225.579V236.364H752.659C756.566 236.364 757.542 236.954 757.542 239.318C757.542 241.682 758.519 242.273 761.728 242.273C765.773 242.273 765.913 242.568 765.913 248.92C765.913 255.568 765.913 255.568 761.03 255.568C757.124 255.568 756.147 254.977 756.147 252.614C756.147 250.989 755.45 249.659 754.752 249.659C753.915 249.659 753.636 253.352 754.194 260L755.171 270.341H745.126H735.221V263.841ZM729.64 224.545C729.64 223.807 731.035 223.068 732.57 223.068C735.36 223.068 735.5 222.477 734.523 216.125C733.407 207.852 733.407 208 730.617 209.034C729.501 209.625 727.826 212.875 726.989 216.42C725.036 224.841 725.036 226.023 727.547 226.023C728.664 226.023 729.64 225.432 729.64 224.545Z" fill="#FFFEF7"/>
<path d="M68.3602 204.602C67.3836 203.42 64.4539 202.386 61.9427 202.386C57.1993 202.386 57.1993 202.239 57.1993 195.739C57.1993 190.42 57.7574 188.795 60.6871 186.727C65.1514 183.625 65.1514 182 60.4081 181.409C57.6179 181.114 56.3623 180.079 56.0832 177.716C55.8042 175.795 54.9672 174.318 54.2696 174.318C53.5721 174.318 53.014 173.284 53.014 172.102C53.014 170.92 51.7584 169.886 50.2238 169.886C47.9916 169.886 47.4336 168.852 47.4336 164.716C47.4336 159.841 47.7126 159.545 52.3165 159.545C54.9672 159.545 57.1993 160.136 57.1993 160.875C57.1993 161.614 60.6871 162.795 64.8724 163.239C72.406 164.273 72.5455 164.42 72.5455 169.295C72.5455 172.841 73.243 174.318 74.7776 174.318C78.1259 174.318 80.9161 170.477 80.9161 165.75C80.9161 161.909 81.6137 161.17 85.1014 160.284C87.3336 159.693 89.5658 158.659 89.9843 157.92C90.5423 157.182 93.193 156.591 95.9832 156.591H101.145L101.285 144.477C101.424 137.091 102.122 132.068 103.098 131.773C103.935 131.477 104.633 130 104.633 128.375C104.633 126.307 105.609 125.568 108.818 125.568C111.19 125.568 113.004 124.977 113.004 124.091C113.004 123.352 115.236 122.614 117.886 122.614C122.49 122.614 122.769 122.909 122.769 127.784C122.769 131.92 122.211 132.954 119.979 132.954C118.444 132.954 117.189 133.693 117.189 134.432C117.189 135.318 118.444 135.909 119.979 135.909C122.211 135.909 122.769 136.943 122.769 140.932C122.769 143.591 121.793 146.693 120.677 147.727C119.561 148.761 118.584 151.864 118.584 154.523V159.545H111.608C104.772 159.545 104.633 159.693 104.633 163.977C104.633 167.375 103.796 168.852 101.145 170.182C98.2154 171.511 97.6574 172.841 97.6574 177.864C97.6574 183.034 96.9598 184.364 93.0535 187.318C90.5423 189.091 86.9151 190.568 85.1014 190.568C82.4507 190.568 82.1717 191.011 83.4273 192.341C84.4039 193.375 85.1014 196.182 85.1014 198.693C85.1014 201.204 84.4039 204.011 83.4273 205.045C81.0556 207.557 70.4528 207.261 68.3602 204.602Z" fill="#FFFEF7"/>
<path d="M484.101 202.386C484.101 199.875 483.125 199.432 478.521 199.432C473.219 199.432 472.94 199.284 472.94 194.852C472.94 189.239 476.149 186.284 482.288 186.136C488.705 186.136 491.077 187.466 491.077 191.455C491.077 193.671 491.914 195 493.169 195C494.565 195 495.262 196.625 495.262 200.171C495.262 205.193 495.123 205.341 489.682 205.341C485.078 205.341 484.101 204.898 484.101 202.386Z" fill="#FFFEF7"/>
<path d="M382.259 191.307C382.259 187.023 382.817 186.136 385.468 185.989C387.142 185.989 387.7 185.545 386.863 185.102C385.747 184.807 385.049 181.852 385.049 178.602C385.049 172.989 385.188 172.841 389.653 172.841C396.907 172.841 401.79 178.159 401.79 185.841C401.79 191.898 401.651 192.045 396.907 192.045C393.559 192.045 392.025 192.784 392.025 194.261C392.025 195.739 390.49 196.477 387.142 196.477C382.538 196.477 382.259 196.182 382.259 191.307Z" fill="#FFFEF7"/>
<path d="M41.853 182.443C41.853 177.568 42.132 177.273 46.7359 177.273C51.3397 177.273 51.6188 177.568 51.6188 182.443C51.6188 187.318 51.3397 187.614 46.7359 187.614C42.132 187.614 41.853 187.318 41.853 182.443Z" fill="#FFFEF7"/>
<path d="M633.517 141.227C632.541 140.046 631.983 136.5 632.262 133.398C632.68 128.227 633.099 127.784 637.284 127.341C643.702 126.602 645.934 129.114 645.934 136.796V143.296H640.493C637.563 143.296 634.354 142.409 633.517 141.227Z" fill="#FFFEF7"/>
<path d="M667.558 139.898C665.605 138.273 665.186 136.648 665.884 131.773C666.581 125.716 666.442 125.568 662.396 125.568C658.49 125.568 658.35 125.273 658.769 120.102C659.187 114.784 659.466 114.489 664.489 114.045C667.418 113.75 669.65 114.193 669.65 115.08C669.65 115.966 671.185 116.705 673.138 116.705C675.649 116.705 676.626 117.443 676.626 119.659C676.626 121.284 677.603 122.614 678.719 122.614C680.393 122.614 680.811 124.682 680.811 132.216V141.818H675.51C672.58 141.818 669.092 140.932 667.558 139.898Z" fill="#FFFEF7"/>
<path d="M181.363 109.761C181.363 109.023 179.968 107.841 178.294 107.102C175.783 105.92 175.085 104.443 175.085 99.7159V93.8068L182.48 93.3636C186.804 93.0682 189.734 93.5113 189.734 94.3977C189.734 95.2841 192.245 96.0227 195.454 96.0227H201.034L200.616 103.114L200.197 110.057L190.85 110.5C185.549 110.795 181.363 110.352 181.363 109.761Z" fill="#FFFEF7"/>
<path d="M156.252 103.409V97.5H162.53H168.808V103.409V109.318H162.53H156.252V103.409Z" fill="#FFFEF7"/>
<path d="M229.634 84.6478C228.239 75.6364 228.658 72.3865 230.89 72.3865C232.006 72.3865 232.983 71.3524 232.983 70.1705C232.983 68.9887 232.425 67.9546 231.588 67.9546C230.89 67.9546 230.192 65.591 230.192 62.7842C230.192 59.3865 230.89 57.6137 232.146 57.6137C234.517 57.6137 235.354 55.2501 236.61 45.7955C237.447 38.5569 237.587 38.4092 242.19 38.4092C246.376 38.4092 246.934 38.8524 246.934 42.5455C246.934 48.3069 248.329 49.4887 254.607 49.4887C259.49 49.4887 260.187 49.9319 260.606 53.1819C261.164 57.0228 263.675 61.0115 263.675 57.9092C263.675 56.8751 265.628 56.1365 268.558 56.1365C272.325 56.1365 273.441 56.7274 273.441 58.7955C273.441 60.2728 275.394 62.9319 277.626 64.7046C280.835 67.216 281.811 69.2842 281.811 72.9774C281.811 85.8296 267.721 85.8296 254.328 72.8296C248.887 67.3637 246.934 68.3978 246.934 76.8183C246.934 86.1251 243.725 90.1137 235.912 90.1137C230.751 90.1137 230.472 89.8183 229.634 84.6478Z" fill="#FFFEF7"/>
<path d="M542.696 79.034C542.696 73.5681 545.207 66.4772 547.16 66.4772C547.718 66.4772 548.276 64.7044 548.276 62.6363C548.276 58.7954 548.555 58.7954 554.415 59.3863C558.739 59.9772 560.832 59.534 561.39 58.3522C561.669 57.3181 565.436 55.9885 569.761 55.5454C576.736 54.5113 577.434 54.0681 577.852 50.5226C578.271 46.9772 578.969 46.534 584.27 46.0908C588.874 45.6476 590.129 46.0908 590.129 48.0113C590.129 49.3408 591.106 51.409 592.222 52.5908C593.338 53.9204 594.315 57.1704 594.315 59.9772C594.315 64.7044 594.036 64.9999 589.571 64.9999C586.642 64.9999 584.549 64.1135 583.991 62.784C583.014 59.9772 580.364 59.9772 580.364 62.784C580.364 63.9658 579.108 64.9999 577.573 64.9999C575.76 64.9999 574.504 66.3294 573.946 68.6931C573.249 71.9431 572.272 72.3863 566.971 72.3863H560.832V78.2954V84.2044H551.764H542.696V79.034Z" fill="#FFFEF7"/>
<path d="M465.267 51.4091C462.198 50.5227 458.571 49.3409 457.315 48.6023C455.92 47.8636 453.548 47.2727 452.014 47.2727C449.782 47.2727 449.224 46.2386 449.224 42.6932C449.224 37.8182 451.874 33.9773 455.362 33.9773C456.897 33.9773 457.594 32.6477 457.594 29.6932C457.594 27.1818 458.292 24.8182 458.989 24.375C459.826 23.9318 460.384 21.8636 460.384 19.7955C460.384 16.3977 460.803 16.25 468.058 16.25C473.638 16.25 476.01 16.8409 476.568 18.4659C477.126 19.7955 479.218 20.6818 482.148 20.6818C486.612 20.6818 486.891 20.9773 486.891 25.8523C486.891 28.6591 487.589 31.0227 488.287 31.0227C489.124 31.0227 489.682 33.6818 489.682 36.9318C489.682 41.2159 489.124 42.8409 487.589 42.8409C486.194 42.8409 485.496 44.3182 485.496 47.125C485.496 49.6364 484.659 51.7045 483.264 52.2955C480.195 53.4773 471.964 53.0341 465.267 51.4091Z" fill="#FFFEF7"/>
<path d="M501.819 52.1479C501.261 51.7047 500.843 49.0456 500.843 46.2388C500.843 41.3638 500.982 41.3638 507.121 41.3638H513.399V47.2729C513.399 53.1819 513.399 53.1819 508.097 53.1819C505.168 53.1819 502.238 52.7388 501.819 52.1479Z" fill="#FFFEF7"/>
<path d="M295.762 43.5796V36.7842L303.156 37.2274L310.411 37.6705V43.5796V49.4887L303.156 49.9319L295.762 50.3751V43.5796Z" fill="#FFFEF7"/>
<path d="M593.338 48.0112C592.361 46.8294 591.524 43.8748 591.524 41.3635C591.524 37.3748 591.943 36.9316 595.849 36.9316C601.29 36.9316 604.08 39.8862 604.08 45.6475C604.08 49.7839 603.662 50.2271 599.616 50.2271C597.105 50.0794 594.175 49.193 593.338 48.0112Z" fill="#FFFEF7"/>
<path d="M381.282 46.2385C375.423 45.6476 375.283 45.4999 375.283 40.1817C375.283 32.3522 378.492 28.0681 384.491 28.0681C387.142 28.0681 390.35 29.2499 391.745 30.7272C394.815 33.9772 397.605 33.3863 397.605 29.3976C397.605 27.034 398.581 26.5908 404.58 26.5908H411.556V32.4999C411.556 37.8181 411.277 38.409 408.068 38.409C405.836 38.409 404.58 39.2954 404.58 40.6249C404.58 41.9545 403.325 42.8408 401.093 42.8408C398.86 42.8408 397.605 43.7272 397.605 45.0567C397.605 47.2726 394.954 47.5681 381.282 46.2385Z" fill="#FFFEF7"/>
<path d="M524.838 45.4999C523.025 43.5795 522.606 37.2272 524.001 33.3863C524.559 31.909 526.513 31.0226 528.884 31.0226C531.535 31.0226 532.93 30.284 532.93 28.8067C532.93 27.1817 534.465 26.5908 538.51 26.5908H544.091V32.4999C544.091 37.3749 543.672 38.409 541.44 38.409C539.487 38.409 538.51 39.5908 538.231 42.5454C537.813 46.0908 537.115 46.534 532.232 46.9772C529.024 47.2726 525.815 46.534 524.838 45.4999Z" fill="#FFFEF7"/>
<path d="M347.66 42.5454C346.684 41.5113 345.986 39.8863 345.986 38.8522C345.986 37.8181 345.428 36.9318 344.591 36.9318C343.894 36.9318 343.196 34.5681 343.196 31.7613C343.196 28.2159 342.499 26.5909 341.103 26.5909C339.569 26.5909 339.011 24.8181 339.011 19.9431V13.2954H344.591H350.172V19.2045C350.172 24.0795 350.59 25.1136 352.962 25.1136C354.775 25.1136 355.752 24.0795 355.752 22.159C355.752 19.5 356.729 19.2045 364.82 19.2045H373.888V30.284V41.3636H369.005C366.355 41.3636 364.123 40.7727 364.123 39.8863C364.123 39.1477 363.565 38.409 362.728 38.409C362.03 38.409 361.332 39.7386 361.332 41.3636C361.332 43.875 360.356 44.3181 355.333 44.3181C351.985 44.3181 348.637 43.5795 347.66 42.5454Z" fill="#FFFEF7"/>
<path d="M426.902 30.4318C426.902 25.2614 427.6 21.5682 428.995 20.0909C430.111 18.9091 431.087 17.2841 431.087 16.3977C431.087 15.5114 430.111 14.7727 428.995 14.7727C427.879 14.7727 426.902 16.1023 426.902 17.5795C426.902 20.6818 424.251 22.1591 418.81 22.1591C410.998 22.1591 410.719 20.8295 413.788 4.875L414.625 0H429.134C443.225 0 443.643 0.147727 443.643 3.39773C443.643 8.56818 441.551 10.6364 435.831 11.8182L430.39 13L435.691 13.1477C440.574 13.2955 440.853 13.4432 440.853 18.4659C440.853 21.2727 440.295 23.6364 439.597 23.6364C438.9 23.6364 438.063 27.0341 437.505 31.0227C436.528 38.2614 436.528 38.4091 431.785 38.4091H426.902V30.4318Z" fill="#FFFEF7"/>
<path d="M301.343 29.5453V23.6362H307.621H313.899V29.5453V35.4544H307.621H301.343V29.5453Z" fill="#FFFEF7"/>
<path d="M267.023 15.9545C265.907 9.45454 265.21 8.125 262.28 7.38636C260.048 6.79545 258.653 5.31818 258.374 3.25L257.955 0H294.925H332.035V3.39773C332.035 7.97727 327.152 13.2955 322.967 13.2955C320.037 13.2955 319.479 14.0341 319.479 17.4318V21.7159L303.854 22.6023C295.204 23.1932 283.625 23.6364 278.184 23.6364H268.279L267.023 15.9545Z" fill="#FFFEF7"/>
<path d="M553.857 10.9318C553.857 7.82955 553.299 7.23864 551.485 8.125C545.905 10.4886 538.232 10.7841 536.976 8.71591C536 6.94318 535.721 6.94318 535.721 8.71591C535.721 10.3409 533.907 10.6364 527.21 9.75C517.863 8.71591 514.794 7.09091 514.794 2.80682C514.794 0.147727 516.329 0 542.696 0C568.366 0 570.598 0.147727 570.598 2.65909C570.459 5.76136 567.389 10.3409 565.157 10.3409C564.32 10.3409 563.623 11.375 563.623 12.5568C563.623 14.0341 562.088 14.7727 558.74 14.7727C554.415 14.7727 553.857 14.3295 553.857 10.9318Z" fill="#FFFEF7"/>
<path d="M86.9151 358.977C82.5902 357.057 82.8693 356.023 87.8916 356.023C90.6818 356.023 92.0769 356.761 92.0769 358.239C92.0769 360.75 91.3794 360.898 86.9151 358.977Z" fill="#FCFBFB"/>
<path d="M616.636 350.852C616.636 345.977 616.915 345.682 621.519 345.682C626.123 345.682 626.402 345.977 626.402 350.852C626.402 354.398 625.704 356.023 624.309 356.023C623.193 356.023 622.356 354.841 622.635 353.511C623.054 349.818 620.264 349.375 619.705 353.068C618.868 358.091 616.636 356.318 616.636 350.852Z" fill="#FCFBFB"/>
<path d="M731.035 243.602C731.035 240.943 731.314 240.796 733.128 242.273C734.244 243.307 735.22 244.637 735.22 245.375C735.22 246.114 734.244 246.705 733.128 246.705C731.872 246.705 731.035 245.375 731.035 243.602Z" fill="#FCFBFB"/>
<path d="M721.27 237.102C721.27 233.114 721.409 232.966 724.618 234.295C727.548 235.477 727.408 236.807 724.06 239.023C721.549 240.648 721.27 240.5 721.27 237.102Z" fill="#FCFBFB"/>
<path d="M568.087 370.5C567.111 369.466 566.413 366.511 566.413 363.852C566.413 359.273 566.692 358.977 571.017 358.977C573.528 358.977 576.318 359.716 577.295 360.75C578.271 361.784 578.969 364.739 578.969 367.398C578.969 371.977 578.69 372.273 574.365 372.273C571.854 372.273 569.064 371.534 568.087 370.5Z" fill="#D4523C"/>
<path d="M599.896 334.602C599.896 329.727 600.175 329.432 604.778 329.432C609.382 329.432 609.661 329.727 609.661 334.602C609.661 339.477 609.382 339.773 604.778 339.773C600.175 339.773 599.896 339.477 599.896 334.602Z" fill="#D4523C"/>
<path d="M432.343 253.648C425.647 247.739 417.137 234.148 417.137 229.568C417.137 221.886 418.671 221 433.459 219.818C440.993 219.227 451.456 218.341 456.758 217.75L466.384 216.716L465.547 229.125C464.71 242.864 462.757 251.432 459.548 254.829C458.013 256.454 454.526 257.045 446.713 257.045C437.645 257.045 435.413 256.454 432.343 253.648Z" fill="#D4523C"/>
<path d="M478.94 209.625C477.963 208.591 477.126 206.523 477.126 205.045C477.126 203.568 476.15 202.386 475.034 202.386C473.499 202.386 472.941 200.761 472.941 196.477C472.941 191.159 473.359 190.568 476.429 190.568C479.219 190.568 479.916 189.829 479.916 187.023C479.916 184.659 481.033 183.034 483.823 182C497.913 176.091 516.747 174.909 524.56 179.341C531.117 183.034 531.535 183.92 531.535 195C531.535 200.318 530.977 205.341 530.419 206.227C529.861 207.261 523.583 208.443 516.189 208.886C481.73 211.398 480.614 211.398 478.94 209.625ZM486.892 193.67C486.892 191.159 482.428 190.568 479.498 192.784C476.568 194.852 476.708 195 481.73 195C484.52 195 486.892 194.409 486.892 193.67ZM509.214 191.454C509.214 190.125 503.773 189.534 502.099 190.716C500.703 191.602 501.541 192.045 504.749 192.045C507.121 192.045 509.214 191.75 509.214 191.454Z" fill="#D4523C"/>
<path d="M346.684 201.943C345.428 198.398 344.591 192.636 344.87 189.091C345.428 180.227 352.125 174.466 363.286 173.284L371.098 172.398V179.341C371.098 185.841 371.238 186.136 375.004 185.989C377.376 185.841 377.934 185.545 376.26 185.102C374.307 184.511 373.888 183.182 374.167 179.045C374.586 173.58 374.586 173.58 381.422 173.136C385.328 172.841 389.653 173.284 391.188 174.17C392.862 175.057 395.652 175.795 397.605 176.091C400.953 176.534 401.093 176.977 400.953 185.693C400.814 200.466 399.558 201.5 379.608 203.864C370.261 204.898 362.309 206.375 361.89 207.114C361.472 207.705 358.403 208.295 355.054 208.295C349.195 208.295 348.916 208.148 346.684 201.943ZM397.047 185.102C396.489 181.852 392.025 180.67 392.025 183.773C392.025 184.955 393.141 186.284 394.536 186.58C395.791 187.023 397.047 187.318 397.187 187.466C397.326 187.466 397.187 186.432 397.047 185.102Z" fill="#D4523C"/>
<path d="M475.173 204.455C474.754 203.125 474.335 198.841 474.335 195C474.335 186.727 476.428 184.659 484.38 184.659H488.984L484.101 189.091C481.45 191.455 478.8 193.523 478.242 193.523C477.544 193.523 477.126 194.705 477.265 196.182C477.265 197.659 477.684 197.955 478.102 196.921C478.381 195.886 480.474 195 482.706 195C484.799 195 487.449 193.966 488.426 192.636C490.1 190.568 490.379 190.568 491.216 193.08C493.03 197.955 492.472 198.989 486.891 200.909C482.427 202.386 481.59 203.273 482.846 204.898C484.101 206.375 483.543 206.818 480.195 206.818C477.684 206.818 475.731 205.932 475.173 204.455Z" fill="#56A01E"/>
<path d="M364.541 182.591C367.471 180.227 367.75 176.682 364.681 177.864C363.006 178.455 362.588 177.864 363.006 175.352C363.425 172.25 363.983 172.102 378.074 172.102C392.443 172.102 392.722 172.102 393.141 175.648C393.559 178.307 393.141 178.898 391.467 178.307C390.211 177.716 389.234 178.159 389.234 179.045C389.234 180.375 388.816 180.375 387.56 179.045C386.584 178.011 385.049 177.273 384.072 177.273C381.143 177.273 381.98 181.114 385.468 182.739C387.839 184.068 385.607 184.364 375.283 184.364C364.122 184.511 362.448 184.216 364.541 182.591Z" fill="#56A01E"/>
<path d="M245.817 175.5C244.701 174.318 239.539 173.875 230.611 174.023C206.615 174.614 200.895 171.364 200.895 157.182C200.895 146.989 203.127 145.511 218.613 145.511C230.053 145.511 230.053 145.511 231.029 141.375C232.006 136.352 238.981 127.636 244.283 124.682C248.189 122.614 260.187 121.875 264.233 123.5C267.86 124.977 267.163 140.784 263.117 150.091C261.303 154.227 259.21 158.068 258.373 158.659C257.536 159.102 257.257 163.091 257.676 168.409L258.513 177.273H252.932C250.003 177.273 246.794 176.534 245.817 175.5Z" fill="#56A01E"/>
<path d="M413.649 390C411.835 387.932 409.324 387.046 405.278 387.046C400.535 387.046 399.14 386.455 398.582 384.091C397.605 379.955 394.396 380.398 387.421 385.716L381.561 390.296L366.913 389.409C337.615 387.784 318.642 386.012 315.154 384.387C312.085 383.057 311.527 382.171 312.225 378.921L312.922 374.932L303.993 375.966C299.111 376.557 294.646 377.739 294.228 378.625C292.275 381.727 279.858 385.125 275.812 383.648C272.464 382.466 272.046 381.728 272.743 378.034C273.441 374.489 273.162 373.75 271.069 373.75C269.674 373.75 266.884 371.682 264.791 369.023C260.745 363.705 257.955 364.296 260.745 369.909C261.861 371.83 262.14 374.193 261.722 375.08C260.327 377.443 253.77 377 251.956 374.489C250.561 372.421 250.142 372.421 247.213 374.489C245.539 375.818 244.143 378.478 244.143 380.398C244.143 384.978 243.306 385.421 235.773 384.091C232.285 383.5 230.332 382.909 231.308 382.762C233.82 382.466 233.401 380.103 230.192 376.705C226.705 373.012 226.007 373.012 226.007 376.409C226.007 377.887 225.031 380.398 223.914 382.023C222.24 384.83 220.706 385.125 210.8 384.83C197.965 384.534 192.943 382.023 192.246 375.671C191.967 372.716 190.99 371.387 188.618 371.091C184.712 370.5 183.038 374.489 185.41 378.625C186.386 380.102 186.665 382.023 185.968 382.614C185.41 383.353 179.411 384.091 172.714 384.387L160.577 384.83L158.484 379.216C155.973 372.568 153.462 372.568 151.369 379.364C150.532 381.875 149.416 384.387 148.858 384.978C148.439 385.568 143.696 383.205 138.534 379.955C133.372 376.705 126.118 372.421 122.49 370.648C118.724 368.727 115.794 366.807 115.794 366.364C115.794 365.773 117.328 363.853 119.282 361.932C123.327 357.796 123.746 355.284 120.258 353.955C119.003 353.512 117.049 352.625 116.212 352.182C114.957 351.591 114.399 352.921 114.399 356.762C114.399 361.932 114.259 362.228 110.492 361.489C101.703 359.568 101.145 359.716 101.564 362.375C102.122 365.478 95.5648 365.921 94.4487 362.818C94.0302 361.637 91.798 360.307 89.4263 359.716C87.1941 359.273 84.5434 357.796 83.5669 356.614C82.7298 355.432 81.4742 354.546 80.7767 354.546C78.963 354.546 79.242 364 81.0557 365.921C83.2878 368.284 81.6137 370.353 77.1494 371.239C74.9172 371.682 71.7085 372.421 69.8948 373.159C66.8256 374.193 66.6861 373.898 67.5232 369.909C68.0812 367.546 68.6392 365.034 68.7788 364.148C68.9183 363.409 67.1046 362.523 64.5934 362.228C61.2452 361.932 59.8501 362.523 58.5945 364.887C57.6179 366.955 55.9438 367.841 53.9906 367.546C51.2004 367.103 50.9214 366.068 50.5029 356.171C50.0843 346.568 50.3634 345.387 52.456 346.273C53.7116 346.716 58.734 346.716 63.4774 346.273C71.4295 345.387 72.127 345.091 70.8714 342.728C69.7553 340.807 67.6627 340.216 62.9193 340.364C56.7808 340.512 56.5018 340.364 56.0833 336.08C55.8043 333.716 54.2697 330.171 52.735 328.546C49.3868 324.557 51.898 322.046 55.6648 325.739C58.176 327.955 58.3155 327.807 58.8735 323.228C59.292 320.568 59.8501 317.466 60.1291 316.432C60.4081 315.25 59.4315 313.625 57.8969 312.739C56.3623 311.705 53.0141 309.046 50.3634 306.682C45.7595 302.546 43.6669 302.398 35.0172 304.614C31.669 305.353 31.669 299.887 34.8777 292.352C36.6913 288.512 37.6679 284.228 37.2494 283.046C36.1333 280.091 29.2973 279.943 29.2973 282.75C29.2973 286.296 25.949 288.068 21.4847 286.739C17.2994 285.557 16.1833 282.75 14.3697 267.83C13.6721 261.773 13.8116 261.477 17.1599 261.477C19.6711 261.477 21.0662 260.443 21.7637 258.228C22.3218 256.307 23.8564 253.205 25.2515 251.284C27.0651 248.773 27.4836 247.148 26.5071 245.227C25.67 243.602 25.67 240.796 26.5071 237.989C27.6232 233.705 27.2046 232.671 23.0193 227.648L18.2759 222.182L20.2291 215.091C21.3452 211.102 23.8564 206.227 25.8095 204.159C29.1578 200.762 29.4368 200.614 31.8085 202.977C35.1567 206.08 36.5518 205.932 43.3878 202.239C48.8288 199.432 49.1078 198.989 48.2707 194.114C47.4336 189.83 47.7127 189.091 49.8053 189.091C51.3399 189.091 54.8277 186.432 57.7574 183.182C60.6871 179.932 63.6169 177.273 64.4539 177.273C65.1515 177.273 67.5232 179.193 69.4763 181.705C74.0802 187.171 81.6137 187.762 88.7288 183.034C93.8906 179.637 94.3092 178.75 91.798 176.091C89.2868 173.432 85.52 174.023 82.4508 177.568L79.5211 180.671L73.2431 177.273C64.3144 172.398 65.291 169.296 76.0333 168.409C80.6371 167.966 85.241 167.08 86.3571 166.341C87.4732 165.602 88.5892 165.75 89.4263 167.08C91.1004 170.034 99.6106 165.159 103.517 158.955C106.168 154.671 107.284 153.932 110.492 154.671C113.422 155.262 114.399 154.966 114.399 153.046C114.399 151.716 113.422 150.682 112.306 150.682C109.097 150.682 109.795 149.057 114.817 144.625L119.282 140.489L112.725 140.341C104.075 140.341 103.935 137.83 112.306 132.364C114.678 130.887 117.886 127.637 119.7 125.421C122.769 121.432 123.746 121.137 132.535 121.137C137.836 121.137 142.44 120.546 142.859 119.807C143.277 119.216 146.626 117.739 150.253 116.705C154.02 115.671 157.507 114.193 158.205 113.603C158.903 113.012 161.274 112.864 163.367 113.307C167.831 114.193 168.529 112.568 165.739 107.841C163.367 104 166.297 100.455 169.784 102.818C171.738 104 172.714 103.705 174.528 101.489C177.457 97.5002 180.248 99.4207 178.574 104.296C177.457 107.103 177.736 108.137 179.411 108.875C183.596 110.5 186.247 107.25 186.665 99.8639C186.944 94.5457 187.642 93.0684 189.595 93.0684C190.85 93.0684 192.664 93.807 193.641 94.8411C194.896 96.1707 195.873 95.8752 197.965 93.9548C200.058 91.8866 201.314 91.7389 203.546 93.0684C205.778 94.2502 207.452 94.1025 210.521 92.3298C212.893 91.1479 215.544 90.1139 216.52 90.1139C217.636 90.1139 220.566 88.1934 223.217 85.8298C227.821 81.8411 228.379 81.6934 232.006 83.6139C239.679 87.8979 244.701 80.2161 241.353 69.2843C239.261 62.6366 239.958 61.1593 243.864 63.3752C249.166 66.3298 251.119 65.4434 250.84 60.2729C250.282 52.8866 254.328 53.7729 255.444 61.307C256.42 67.0684 256.978 67.807 267.023 74.7502C272.046 78.2957 272.464 78.2957 274.975 75.932C277.486 73.5684 277.486 73.1252 275.394 70.7616C274.138 69.2843 271.906 67.6593 270.371 67.0684C268.697 66.6252 268 65.4434 268.418 63.9661C268.837 62.7843 268.558 60.5684 267.721 58.9434C266.605 56.7275 266.744 55.3979 268 53.7729C269.953 51.2616 269.953 51.1139 263.675 49.3411C257.397 47.4207 256.978 42.9889 262.977 40.9207C265.349 40.182 268.976 37.8184 271.069 35.6025C274.836 31.9093 275.952 31.7616 293.112 31.0229C303.714 30.5798 311.806 30.8752 312.643 31.6139C313.341 32.5002 313.899 35.307 313.899 37.9661C313.899 42.6934 314.178 42.8411 319.34 42.8411C322.409 42.8411 325.06 42.1025 325.478 41.0684C325.897 39.5911 326.455 39.5911 327.85 40.9207C329.245 42.2502 331.059 41.3639 336.22 36.7843C343.754 29.9889 346.405 29.6934 349.613 34.7161C351.985 38.557 359.658 42.8411 364.122 42.8411C366.913 42.8411 369.703 37.0798 369.703 31.0229C369.703 27.6252 371.517 21.2729 373.33 18.0229C373.47 17.7275 376.12 19.057 379.329 20.8298C383.793 23.1934 386.444 23.7843 390.629 23.0457C395.373 22.307 396.21 22.4548 396.21 24.6707C396.21 26.1479 394.954 28.2161 393.28 29.2502C390.629 31.0229 390.49 31.4661 392.583 33.8298C395.512 37.2275 395.373 37.9661 391.885 38.8525C388.118 39.8866 389.792 42.8411 394.117 42.8411C396.489 42.8411 398.163 41.5116 399.698 38.4093C400.953 36.0457 402.906 33.9775 404.301 33.9775C408.347 33.9775 410.161 30.8752 410.161 24.2275C410.161 16.8411 412.812 13.7389 416.997 16.2502C419.09 17.432 420.764 17.432 422.717 16.2502C425.507 14.6252 425.786 14.0343 426.065 7.38658C426.344 2.0684 430.669 1.62521 432.622 6.9434C433.459 9.15931 434.994 12.2616 436.249 13.5911C438.203 15.9548 438.203 16.3979 435.412 18.7616C430.948 22.6025 429.971 32.2048 433.459 36.7843C435.831 39.8866 436.528 40.0343 439.179 38.2616C441.83 36.4889 442.527 36.6366 445.457 39.5911C447.689 41.807 450.479 42.8411 454.525 42.8411C457.595 42.8411 460.524 43.432 460.943 44.1707C461.361 44.7616 464.012 45.7957 466.942 46.2389C469.871 46.682 473.638 47.5684 475.452 48.1593C477.126 48.6025 478.521 48.4548 478.521 47.7161C478.521 46.0911 470.429 42.1025 464.57 40.7729C456.897 38.8525 456.478 37.5229 462.477 31.0229C467.918 25.1139 471.127 24.0798 478.242 26.0002C479.916 26.5911 481.311 27.4775 481.311 28.0684C481.311 28.807 479.916 29.8411 478.242 30.432C471.685 32.5002 471.546 33.8298 476.149 40.7729C480.474 47.2729 484.939 49.932 488.984 48.1593C490.1 47.7161 492.751 49.0457 494.983 50.9661L499.029 54.5116L505.726 50.8184C509.492 48.8979 513.538 47.2729 514.794 47.2729C516.049 47.2729 518.142 44.9093 519.398 42.1025C522.048 36.1934 524.42 35.6025 528.047 39.8866C531.256 43.5798 533.349 42.9889 534.325 38.2616C535.023 35.0116 535.86 34.7161 543.812 34.4207L552.462 34.2729V41.9548C552.462 46.2389 551.764 50.3752 550.787 51.4093C549.671 52.5911 549.671 53.6252 551.067 55.3979C553.717 58.7957 553.02 66.9207 549.671 72.682C545.905 79.182 546.044 79.7729 551.904 79.7729C556.926 79.7729 557.065 79.6252 556.228 74.7502C555.67 71.057 556.089 68.9889 557.903 67.3639C560.693 64.7048 563.622 64.2616 563.622 66.4775C563.622 67.3639 564.878 67.9548 566.413 67.9548C567.947 67.9548 569.203 67.0684 569.203 65.8866C569.203 64.7048 571.156 62.6366 573.388 61.4548C575.76 60.1252 579.527 57.9093 582.038 56.5798C584.689 55.1025 586.642 54.807 586.921 55.6934C587.2 56.5798 588.316 58.5002 589.292 59.9775C591.106 62.4889 591.804 62.4889 595.989 60.8639C600.732 59.0911 605.476 58.5002 605.476 59.682C605.476 60.1252 604.22 62.6366 602.685 65.4434L599.895 70.4661L603.243 72.9775C605.197 74.1593 607.568 77.1139 608.545 79.3298C609.94 82.432 611.475 83.6139 615.241 83.9093C619.287 84.3525 622.496 86.8639 633.796 98.682C646.352 111.83 647.608 112.864 650.259 111.091C652.909 109.318 653.607 109.614 658.071 115.08C660.861 118.625 664.07 121.137 665.884 121.137C670.348 121.284 675.789 126.159 674.812 129.114C674.254 130.443 672.999 131.477 671.743 131.477C668.813 131.477 669.092 133.398 672.58 136.796C674.952 139.159 675.649 139.159 676.626 137.387C677.463 136.205 678.021 134.728 678.021 134.137C678.021 133.398 679.556 132.955 681.369 132.955C683.323 132.955 685.276 132.364 685.694 131.477C686.113 130.739 688.763 130 691.414 130C694.065 130 696.157 130.739 696.157 131.477C696.157 132.364 695.46 132.955 694.623 132.955C693.507 132.955 693.367 136.648 694.065 145.068C695.041 156 694.902 157.034 692.949 155.409C691.135 153.784 690.298 154.08 688.066 156.591C685.973 159.103 685.555 161.171 685.973 166.637C686.81 175.057 689.461 178.602 692.53 175.796C695.32 173.432 695.46 168.409 692.67 168.409C689.88 168.409 687.508 162.205 689.74 160.728C691.693 159.398 698.669 166.489 699.227 170.478C699.785 173.728 700.482 173.875 705.226 171.955C707.597 170.921 707.737 171.068 706.202 173.137C704.249 175.648 705.365 178.898 710.109 185.103C711.922 187.614 711.922 188.057 709.69 189.83C705.784 192.784 706.76 200.023 711.783 206.08C716.107 211.398 716.107 211.546 713.736 215.83C710.946 221 711.643 224.546 715.41 224.546C718.898 224.546 720.711 222.182 721.967 215.977C722.664 212.137 722.246 210.364 719.316 206.671C715.27 201.648 715.689 198.546 720.014 200.909C721.409 201.796 722.664 204.012 722.664 205.784C722.664 210.216 723.92 211.841 729.082 214.648C732.291 216.421 733.686 218.341 734.244 221.887C735.22 228.977 732.291 231.784 725.036 230.898L719.177 230.159L722.664 233.114C725.455 235.625 725.734 236.364 724.199 238.432C723.223 239.762 721.548 240.796 720.711 240.796C719.874 240.796 717.642 242.125 715.968 243.455C712.759 246.114 712.759 246.409 714.712 251.284C715.968 254.091 718.34 258.227 720.153 260.591L723.641 264.875L726.71 259.557C728.384 256.602 729.64 253.057 729.361 251.58C729.082 249.659 729.919 248.773 732.57 248.477C735.22 248.182 737.174 249.216 739.964 252.762C743.312 257.046 743.452 257.637 741.498 260C738.011 264.137 738.987 266.943 742.614 263.25C753.915 252.023 750.288 272.853 738.708 285.409C735.918 288.512 733.965 291.614 734.523 292.5C735.499 294.125 731.872 302.103 729.501 303.58C728.803 304.171 726.85 303.432 725.315 301.955C722.665 299.443 722.664 299.591 722.664 311.557C722.664 321.012 722.246 323.818 720.572 324.409C719.456 325 717.503 324.557 716.247 323.523C714.712 322.046 713.736 322.046 712.62 323.228C711.504 324.409 711.922 325.296 714.433 326.33C716.247 327.216 719.037 328.841 720.432 330.023C722.944 332.091 722.943 332.534 720.711 336.08C719.456 338.148 717.782 339.773 717.084 339.773C716.386 339.773 715.549 341.103 714.991 342.58C713.875 346.716 707.179 348.932 698.39 348.341C690.996 347.898 690.717 348.046 693.507 350.262C697.274 353.216 695.878 356.023 690.577 356.023C688.484 356.023 686.392 356.762 686.113 357.5C685.834 358.387 680.532 361.046 674.115 363.409C661.28 368.284 656.676 367.693 654.444 361.341C652.909 357.353 647.189 355.58 642.167 357.648C638.4 359.125 638.121 360.75 641.33 366.512C643.562 370.648 643.562 370.796 640.353 374.489C635.749 379.659 635.052 379.216 635.749 371.682C636.726 363.557 634.215 357.943 631.006 360.75C629.75 361.784 628.076 362.671 627.239 362.671C624.449 362.671 624.868 365.625 627.797 366.068C630.727 366.659 631.285 368.728 629.192 372.273C628.076 374.046 627.658 374.046 625.286 371.83C619.985 366.659 610.359 369.909 612.033 376.409C612.591 379.216 613.567 379.659 616.078 379.068C618.032 378.478 619.427 378.773 619.427 379.659C619.427 380.398 616.497 381.137 612.87 381.137C607.987 381.137 604.778 379.955 599.756 376.557C592.78 371.83 589.85 371.83 591.106 376.557C591.525 378.034 591.106 379.807 590.409 380.25C589.571 380.693 582.456 381.284 574.644 381.432C563.762 381.728 560.135 381.284 559.716 379.807C559.437 378.773 557.903 376.557 556.368 374.932C554.275 372.716 553.299 372.421 551.625 373.898C549.811 375.375 549.951 375.966 551.904 378.33C554.973 381.875 553.717 383.353 549.671 381.137C547.3 379.807 546.184 379.955 544.091 381.875C542.138 383.648 539.208 384.091 530.559 383.943C524.56 383.648 518.7 384.239 517.584 384.978C516.468 385.716 510.469 386.75 504.331 387.341C468.755 390.443 467.5 390.443 465.128 388.375C461.919 385.568 447.131 386.603 440.574 390.148C433.738 393.841 429.692 393.693 428.716 390C428.297 388.375 427.181 387.046 426.065 387.046C425.089 387.046 423.554 388.375 422.717 390C421.88 391.625 420.066 392.955 418.671 392.955C417.276 392.955 415.044 391.625 413.649 390ZM374.586 384.682C377.515 381.58 375.841 379.807 368.168 378.034C363.285 376.853 361.89 377 360.077 379.068C358.542 380.693 358.403 381.728 359.379 382.171C360.216 382.466 362.169 383.648 363.564 384.83C367.052 387.637 371.796 387.637 374.586 384.682ZM475.312 384.387C473.917 382.909 472.941 380.25 472.941 378.478C472.941 376.557 472.104 375.228 470.708 375.228C469.034 375.228 468.755 376.262 469.453 380.102C470.848 386.455 471.267 387.046 474.615 387.046C477.405 387.046 477.405 386.898 475.312 384.387ZM328.966 377.887C328.268 375.671 321.293 372.716 320.037 374.193C319.479 374.637 319.479 376.114 319.898 377.443C321.014 380.25 329.803 380.546 328.966 377.887ZM617.055 364C616.497 362.523 615.799 362.228 614.962 363.114C613.288 364.887 614.823 368.284 616.636 367.103C617.334 366.659 617.474 365.182 617.055 364ZM106.028 353.068C106.028 352.182 99.8896 348.637 98.4945 348.637C96.5413 348.637 96.6808 353.955 98.4945 356.318C100.727 358.83 101.006 358.83 103.517 356.614C104.912 355.137 106.028 353.659 106.028 353.068ZM622.496 353.807C622.775 352.182 622.356 350.557 621.519 350.114C620.822 349.671 619.985 351.739 619.706 354.546C619.148 360.012 621.798 359.421 622.496 353.807ZM663.093 355.875C665.465 354.693 667.279 354.693 669.092 355.728C672.859 357.796 677.463 355.137 675.231 352.182C672.441 348.784 664.907 348.046 660.024 350.705C655.699 353.068 654.862 354.693 656.676 356.466C657.932 357.943 659.187 357.796 663.093 355.875ZM654.862 336.523C654.444 335.784 653.188 335.932 652.072 336.966C651.096 337.853 650.538 339.182 650.956 340.068C651.375 340.807 652.63 340.659 653.746 339.625C654.723 338.739 655.281 337.409 654.862 336.523ZM721.269 296.046C721.269 292.205 718.898 291.171 717.642 294.716C716.526 297.671 718.061 301.807 719.874 300.625C720.572 300.182 721.269 298.114 721.269 296.046ZM455.362 250.398C458.013 247.591 460.245 239.614 461.361 229.125L462.198 221.148L457.455 222.182C454.804 222.921 446.294 223.807 438.342 224.398C420.903 225.432 419.648 226.762 425.926 236.216C428.437 239.762 432.483 244.932 434.994 247.739C438.9 251.875 440.435 252.614 446.434 252.614C450.619 252.614 453.967 251.727 455.362 250.398ZM705.086 207.114C706.063 205.341 690.856 189.682 689.6 191.159C689.042 191.75 689.461 193.08 690.577 193.966C691.693 195 694.483 198.546 696.715 202.091C700.482 208 703.552 209.773 705.086 207.114ZM512.701 204.455C519.677 204.012 525.676 202.83 526.234 201.796C526.792 200.909 527.35 197.807 527.35 195C527.35 188.5 526.513 187.171 520.514 183.921C514.794 180.818 506.005 180.818 495.402 183.773C487.45 186.137 477.126 192.489 477.126 195.296C477.126 196.182 478.8 199.284 480.753 201.943C484.381 206.966 484.52 207.114 492.333 206.227C496.657 205.784 505.865 204.898 512.701 204.455ZM357.705 202.682C358.124 201.943 366.076 200.466 375.423 199.432C393.838 197.216 395.233 196.33 397.047 186.58C397.884 182.296 397.466 181.705 392.164 178.898C381.701 173.137 363.285 175.5 353.52 183.773C348.079 188.353 347.939 189.682 351.009 197.955C353.101 203.421 356.031 205.489 357.705 202.682ZM79.3816 200.466C80.4976 198.989 79.9396 197.512 77.0099 194.705C72.127 189.977 67.9417 188.796 64.3144 191.602C59.8501 194.852 60.5476 198.398 65.291 197.216C68.2207 196.625 69.8948 197.068 71.848 199.432C74.7777 202.83 77.1494 203.125 79.3816 200.466ZM253.909 171.512C253.909 170.921 253.212 168.262 252.375 165.75C251.258 162.205 251.398 160.284 253.072 157.034C263.396 137.091 264.931 129.262 258.792 127.637C253.63 126.307 249.026 127.932 243.306 133.25C237.586 138.716 234.378 145.364 234.378 152.159V156.739L229.913 153.341C226.426 150.83 223.496 149.943 218.334 150.091C209.405 150.091 205.081 152.602 205.081 157.477C205.081 166.932 216.52 171.068 237.028 169.148C245.957 168.262 248.05 168.557 249.584 170.478C251.677 172.989 253.909 173.58 253.909 171.512ZM641.748 136.796C641.748 135.762 640.911 133.989 639.795 133.102C637.145 130.739 635.331 133.841 637.563 136.648C639.795 139.455 641.748 139.455 641.748 136.796ZM196.431 102.966C196.71 101.193 196.012 100.455 194.059 100.455C191.967 100.455 191.129 101.341 191.129 103.557C191.129 107.25 195.733 106.807 196.431 102.966ZM306.226 43.5798C306.226 42.8411 304.831 41.9548 303.156 41.6593C300.924 41.3639 299.948 41.9548 299.948 43.5798C299.948 45.2048 300.924 45.7957 303.156 45.5002C304.831 45.2048 306.226 44.4661 306.226 43.5798ZM386.584 39.0002C389.234 36.4889 388.676 32.5002 385.607 32.5002C383.793 32.5002 379.469 37.9661 379.469 40.182C379.469 42.2502 384.072 41.5116 386.584 39.0002Z" fill="#3E220C"/>
<path d="M486.892 196.625C486.892 192.784 498.331 184.659 503.772 184.659C509.353 184.659 516.049 187.614 517.723 190.864C519.956 195.296 517.584 196.773 508.237 197.068C503.772 197.216 497.215 197.955 493.588 198.546C487.31 199.727 486.892 199.58 486.892 196.625Z" fill="#3E220C"/>
<path d="M359.658 193.818C353.38 192.489 360.076 183.034 369.424 180.08C374.307 178.602 376.12 178.75 381.561 180.818C387.56 183.33 391.606 187.614 389.653 189.682C389.234 190.125 385.607 190.568 381.701 190.568C377.794 190.568 371.795 191.455 368.308 192.489C364.82 193.523 360.914 194.262 359.658 193.818Z" fill="#3E220C"/>
<path d="M106.028 368.58C106.028 367.398 106.725 366.364 107.423 366.364C108.26 366.364 108.818 367.398 108.818 368.58C108.818 369.761 108.26 370.796 107.423 370.796C106.725 370.796 106.028 369.761 106.028 368.58Z" fill="#3E220C"/>
<path d="M46.0386 318.352C46.0386 317.171 46.7361 316.136 47.4337 316.136C48.2707 316.136 48.8288 317.171 48.8288 318.352C48.8288 319.534 48.2707 320.568 47.4337 320.568C46.7361 320.568 46.0386 319.534 46.0386 318.352Z" fill="#3E220C"/>
<path d="M27.2045 315.693C24.8328 313.773 24.8328 313.478 28.0416 311.262C30.6923 309.193 31.6688 309.046 33.2034 310.671C35.1566 312.887 34.0405 317.614 31.5293 317.614C30.5527 317.614 28.7391 316.728 27.2045 315.693Z" fill="#3E220C"/>
<path d="M90.6821 160.432C90.6821 159.398 91.6587 157.625 92.7748 156.591C94.5884 154.966 94.8674 155.409 94.8674 158.659C94.8674 161.023 94.1699 162.5 92.7748 162.5C91.6587 162.5 90.6821 161.614 90.6821 160.432Z" fill="#3E220C"/>
<path d="M228.797 75.341C228.797 73.1251 229.495 72.3865 231.309 72.6819C232.564 72.9774 233.68 74.1592 233.68 75.341C233.68 76.5229 232.564 77.7047 231.309 78.0001C229.495 78.2956 228.797 77.5569 228.797 75.341Z" fill="#3E220C"/>
<path d="M370.4 388.523C370.819 387.784 373.749 387.045 376.818 387.045C380.166 387.045 382.119 387.636 381.561 388.523C381.143 389.409 378.213 390 375.144 390C371.795 390 369.842 389.409 370.4 388.523Z" fill="black"/>
<path d="M464.849 388.08C463.593 386.455 464.012 386.159 467.081 386.159C469.313 386.159 471.824 387.046 472.661 388.08C474.056 389.705 473.638 390 470.429 390C468.197 390 465.686 389.114 464.849 388.08Z" fill="black"/>
<path d="M343.196 385.568C343.196 384.829 344.451 384.091 345.986 384.091C347.521 384.091 348.776 384.829 348.776 385.568C348.776 386.454 347.521 387.045 345.986 387.045C344.451 387.045 343.196 386.454 343.196 385.568Z" fill="black"/>
<path d="M163.227 382.614C163.227 381.875 165.459 381.136 168.11 381.136C170.761 381.136 172.993 381.875 172.993 382.614C172.993 383.5 170.761 384.091 168.11 384.091C165.459 384.091 163.227 383.5 163.227 382.614Z" fill="black"/>
<path d="M209.266 382.614C209.266 381.875 210.521 381.136 212.056 381.136C213.59 381.136 214.846 381.875 214.846 382.614C214.846 383.5 213.59 384.091 212.056 384.091C210.521 384.091 209.266 383.5 209.266 382.614Z" fill="black"/>
<path d="M218.473 381.875C221.961 379.068 223.216 379.068 223.216 381.875C223.216 383.352 221.821 384.091 219.45 384.091C215.822 384.091 215.822 383.943 218.473 381.875Z" fill="black"/>
<path d="M235.772 382.761C235.772 381.284 239.121 379.659 242.19 379.659C243.306 379.659 244.143 380.693 244.143 381.875C244.143 383.352 242.748 384.091 239.958 384.091C237.726 384.091 235.772 383.5 235.772 382.761Z" fill="black"/>
<path d="M279.021 382.761C279.021 381.284 283.206 379.216 284.183 380.25C284.601 380.693 284.462 381.58 283.904 382.466C282.788 384.386 279.021 384.682 279.021 382.761Z" fill="black"/>
<path d="M634.772 377.591C634.772 376.409 635.47 374.932 636.168 374.489C637.005 374.046 637.563 372.421 637.563 370.796C637.563 368.875 638.26 368.284 640.353 368.875C643.841 369.909 643.841 370.648 639.655 375.671C635.889 380.25 634.772 380.546 634.772 377.591Z" fill="black"/>
<path d="M625.844 371.83C623.193 369.761 623.193 369.614 626.262 367.989C630.029 365.773 630.448 366.068 629.332 370.5C628.634 373.602 628.216 373.75 625.844 371.83Z" fill="black"/>
<path d="M698.947 347.159C698.947 346.421 700.482 345.682 702.435 345.682C704.388 345.682 705.923 346.421 705.923 347.159C705.923 348.046 704.388 348.636 702.435 348.636C700.482 348.636 698.947 348.046 698.947 347.159Z" fill="black"/>
<path d="M709.829 343.909C711.503 342.136 713.317 341.25 713.875 341.841C714.433 342.432 713.736 343.909 712.341 345.091C708.016 348.341 706.342 347.602 709.829 343.909Z" fill="black"/>
<path d="M53.2927 329.284C50.0839 325.148 50.0839 325 52.8741 325C54.8273 325 56.0829 326.33 56.6409 328.693C57.8965 334.011 57.0594 334.159 53.2927 329.284Z" fill="black"/>
<path d="M732.43 289.102C732.43 288.068 734.104 285.852 736.336 284.227C743.591 278.614 744.288 278.762 738.708 284.966C732.709 291.762 732.43 291.909 732.43 289.102Z" fill="black"/>
<path d="M732.43 249.659C730.756 248.477 730.895 248.182 733.407 248.182C735.081 248.182 736.894 248.921 737.313 249.659C738.429 251.58 735.22 251.58 732.43 249.659Z" fill="black"/>
<path d="M21.903 225.875C19.8103 223.659 18.6943 221.443 19.2523 221C20.6474 220.114 26.9254 227.205 26.2278 228.977C25.9488 229.568 24.1352 228.239 21.903 225.875Z" fill="black"/>
<path d="M731.453 226.614C729.082 224.102 729.221 223.068 731.593 223.068C733.685 223.068 735.778 227.057 734.104 228.091C733.546 228.387 732.29 227.796 731.453 226.614Z" fill="black"/>
<path d="M487.589 195C487.171 194.409 487.868 193.08 488.984 192.045C490.658 190.568 491.077 190.568 491.077 192.193C491.216 193.671 491.635 193.375 492.611 191.75C493.309 190.273 494.983 189.091 496.099 189.091C497.355 189.091 497.773 188.352 497.215 187.466C496.518 186.284 497.076 186.284 499.168 187.466C503.214 189.83 504.191 192.045 501.261 192.045C499.866 192.193 496.378 193.08 493.449 194.114C490.658 195.295 488.008 195.591 487.589 195Z" fill="black"/>
<path d="M359.937 192.341C359.937 191.307 359.379 190.716 358.681 191.159C357.984 191.75 357.705 190.864 358.123 189.386C358.96 185.989 364.82 182.296 372.074 180.523C376.539 179.489 378.91 179.636 383.096 181.852C386.165 183.33 387.7 184.511 386.863 184.659C385.886 184.659 385.049 185.989 385.049 187.614C385.049 189.534 384.072 190.568 382.259 190.568C380.724 190.568 379.468 189.977 379.468 189.239C379.468 184.807 364.122 186.875 361.472 191.75C360.495 193.375 359.937 193.523 359.937 192.341Z" fill="black"/>
<path d="M691.553 166.489C688.344 162.648 688.065 161.614 689.879 161.318C692.669 160.727 696.994 164.568 697.971 168.557C699.087 172.841 695.878 171.955 691.553 166.489Z" fill="black"/>
<path d="M107.423 137.534C107.423 136.796 108.26 135.466 109.376 134.58C111.05 133.102 111.19 133.398 110.632 135.762C109.934 138.864 107.423 140.193 107.423 137.534Z" fill="black"/>
<path d="M666.999 124.534C664.209 121.727 664.07 121.136 666.023 121.136C669.231 121.136 674.533 126.455 672.161 127.341C671.185 127.636 668.813 126.455 666.999 124.534Z" fill="black"/>
<path d="M121.374 124.091C125.141 120.989 133.93 120.102 133.93 122.762C133.93 123.796 132.395 124.091 129.744 123.648C127.512 123.057 125.28 123.205 125.001 123.943C124.583 124.682 122.769 125.568 121.095 126.012C118.026 126.898 118.026 126.898 121.374 124.091Z" fill="black"/>
<path d="M229.634 77.2615C227.96 75.4887 228.797 70.9092 230.89 70.9092C232.006 70.9092 232.982 71.2046 232.982 71.5001C232.982 71.7955 233.401 73.1251 233.82 74.3069C234.517 76.5228 231.169 78.8865 229.634 77.2615Z" fill="black"/>
<path d="M250.84 59.8297C250.282 57.0228 250.7 56.1365 252.514 56.1365C254.327 56.1365 254.746 57.0228 254.188 59.8297C253.909 61.8978 253.072 63.5228 252.514 63.5228C251.956 63.5228 251.119 61.8978 250.84 59.8297Z" fill="black"/>
<path d="M548.276 59.8297C548.276 58.6479 549.252 57.6138 550.369 57.6138C551.485 57.6138 552.461 58.6479 552.461 59.8297C552.461 61.0115 551.485 62.0456 550.369 62.0456C549.252 62.0456 548.276 61.0115 548.276 59.8297Z" fill="black"/>
<path d="M595.849 61.4547C597.384 60.1252 605.475 59.2388 604.778 60.5683C604.359 61.4547 601.988 62.0456 599.616 62.0456C597.244 62.0456 595.57 61.7502 595.849 61.4547Z" fill="black"/>
<path d="M258.931 47.5682C258.652 46.9773 259.489 46.2387 261.024 46.2387C262.419 46.091 263.674 46.5341 263.674 47.4205C263.674 49.0455 259.908 49.1932 258.931 47.5682Z" fill="black"/>
<path d="M467.778 27.0341C469.034 26.7386 471.266 26.7386 472.661 27.0341C473.917 27.4773 472.801 27.7727 470.15 27.7727C467.499 27.7727 466.383 27.4773 467.778 27.0341Z" fill="black"/>
<path d="M427.878 9.30687C427.32 8.86369 426.902 7.09096 426.902 5.46596C426.902 3.54551 427.599 2.9546 429.134 3.54551C430.39 3.98869 431.645 4.43187 431.924 4.43187C432.203 4.43187 432.482 5.76142 432.482 7.38642C432.482 10.1932 429.692 11.3751 427.878 9.30687Z" fill="black"/>
</svg>
