<svg width="36" height="34" viewBox="0 0 36 34" fill="none" xmlns="http://www.w3.org/2000/svg">
<path d="M28.0132 15.8338C27.833 15.7663 27.6499 15.7014 27.4644 15.6392C27.1414 10.992 23.8896 8.3314 18.4293 8.30417C18.4046 8.30405 18.38 8.30405 18.3552 8.30405C15.0893 8.30405 12.3731 9.39266 10.7012 11.3736L13.7042 12.9822C14.9531 11.5025 16.9132 11.1871 18.3567 11.1871C18.3734 11.1871 18.3901 11.1871 18.4066 11.1872C20.2045 11.1962 21.5611 11.6043 22.4392 12.4004C23.0782 12.9799 23.5056 13.7808 23.7172 14.7915C22.1232 14.5799 20.3993 14.5148 18.5564 14.5974C13.365 14.8309 10.0276 17.1952 10.2518 20.4805C10.3655 22.1469 11.4286 23.5806 13.2452 24.5171C14.7811 25.3088 16.7593 25.696 18.8152 25.6083C21.5302 25.4921 23.6601 24.6832 25.146 23.2041C26.2745 22.0809 26.9882 20.6253 27.3034 18.7912C28.5973 19.401 29.5562 20.2034 30.0858 21.168C30.9863 22.8077 31.0388 25.5023 28.2233 27.6991C25.7564 29.6235 22.7912 30.4561 18.3098 30.4818C13.3388 30.453 9.57924 29.2081 7.1349 26.7816C4.84598 24.5094 3.66305 21.2276 3.61892 17.027C3.66305 12.8265 4.84598 9.54459 7.1349 7.27246C9.57924 4.84598 13.3387 3.60109 18.3097 3.57224C23.3168 3.60131 27.1419 4.85219 29.6798 7.29038C30.9242 8.48603 31.8624 9.98966 32.4809 11.7428L36 11.0097C35.2503 8.8517 34.0706 6.99216 32.4652 5.44999C29.2116 2.32413 24.4532 0.72242 18.322 0.689209H18.2975C12.1788 0.722305 7.47358 2.33011 4.31264 5.46791C1.49983 8.26016 0.0489055 12.1454 0.000152556 17.0156L0 17.027L0.000152556 17.0385C0.0489055 21.9087 1.49983 25.794 4.31264 28.5862C7.47358 31.724 12.1788 33.3319 18.2975 33.3649H18.322C23.7619 33.3354 27.5963 32.2233 30.7551 29.7588C34.8879 26.5346 34.7634 22.4932 33.4013 20.0123C32.4241 18.2332 30.5609 16.7881 28.0132 15.8338ZM18.6208 22.7295C16.3455 22.8295 13.9817 22.032 13.8652 20.3239C13.7788 19.0574 15.0194 17.6441 18.7604 17.4758C19.1889 17.4565 19.6093 17.4471 20.0223 17.4471C21.3811 17.4471 22.6523 17.5501 23.8081 17.7474C23.377 21.9514 20.8485 22.634 18.6208 22.7295Z" fill="black"/>
</svg>
